<svg xmlns="http://www.w3.org/2000/svg" xmlns:xlink="http://www.w3.org/1999/xlink" width="312.994" height="145.968" viewBox="0 0 312.994 145.968"><defs><clipPath id="a"><rect width="312.994" height="145.968" fill="none"/></clipPath></defs><path d="M10.181,470.794V448.036H22.648v1.381H11.77v8.6h9.117V459.4H11.77v10.015H22.993v1.381Z" transform="translate(-7.391 -325.24)"/><g clip-path="url(#a)"><path d="M61.086,487.166l5.629-8.668-5.18-7.908h1.692l2.694,4.213q.414.691.846,1.364t.915,1.364h.138q.449-.69.846-1.364t.846-1.364l2.59-4.213h1.589l-5.146,8.046,5.629,8.53H72.482l-2.935-4.524q-.484-.794-.967-1.554t-1-1.485H67.44q-.484.725-.95,1.485t-.95,1.554l-2.832,4.524Z" transform="translate(-44.344 -341.612)"/><path d="M122.68,486.483a7.647,7.647,0,0,1-2.987-.587,6.922,6.922,0,0,1-2.435-1.71,8.24,8.24,0,0,1-1.64-2.728,10.281,10.281,0,0,1-.6-3.643,10.428,10.428,0,0,1,.6-3.66,8.378,8.378,0,0,1,1.623-2.746,7.26,7.26,0,0,1,2.314-1.727,6.268,6.268,0,0,1,2.676-.6,5.778,5.778,0,0,1,4.662,2,8.531,8.531,0,0,1,1.692,5.664v.622a2.874,2.874,0,0,1-.069.621H116.568a9.62,9.62,0,0,0,.483,2.884,6.806,6.806,0,0,0,1.26,2.279,5.743,5.743,0,0,0,1.951,1.485,5.933,5.933,0,0,0,2.555.535,7.06,7.06,0,0,0,2.435-.4,7.943,7.943,0,0,0,2.02-1.088l.622,1.174a20.407,20.407,0,0,1-2.193,1.105,7.623,7.623,0,0,1-3.022.518m-6.112-9.738h10.567a7.346,7.346,0,0,0-1.312-4.783,4.393,4.393,0,0,0-3.557-1.572,4.941,4.941,0,0,0-2.037.432,5.4,5.4,0,0,0-1.744,1.26,6.782,6.782,0,0,0-1.278,2,8.811,8.811,0,0,0-.639,2.659" transform="translate(-83.491 -340.515)"/><path d="M182.769,486.483a7.48,7.48,0,0,1-2.987-.587A6.927,6.927,0,0,1,177.4,484.2a7.776,7.776,0,0,1-1.589-2.711,10.967,10.967,0,0,1-.57-3.678,10.419,10.419,0,0,1,.622-3.712,8.223,8.223,0,0,1,1.658-2.745,7.117,7.117,0,0,1,2.4-1.692,7.215,7.215,0,0,1,2.884-.587,5.933,5.933,0,0,1,2.866.622,10.032,10.032,0,0,1,2,1.416l-.9,1.07a7.6,7.6,0,0,0-1.761-1.26,4.669,4.669,0,0,0-2.176-.5,5.288,5.288,0,0,0-2.366.535,5.727,5.727,0,0,0-1.9,1.519,7.46,7.46,0,0,0-1.278,2.331,9.142,9.142,0,0,0-.466,3,9.68,9.68,0,0,0,.432,2.97,7.111,7.111,0,0,0,1.209,2.314,5.365,5.365,0,0,0,1.9,1.5,5.653,5.653,0,0,0,2.469.535,5.434,5.434,0,0,0,2.435-.553,8.351,8.351,0,0,0,1.986-1.347l.794,1.071a10.374,10.374,0,0,1-2.383,1.554,6.692,6.692,0,0,1-2.9.622" transform="translate(-127.212 -340.515)"/><path d="M240.348,487.581a4.512,4.512,0,0,1-3.8-1.554,7.788,7.788,0,0,1-1.209-4.8V470.59h1.519v10.429a6.925,6.925,0,0,0,.881,3.919,3.266,3.266,0,0,0,2.884,1.26,4.725,4.725,0,0,0,2.694-.812,13.2,13.2,0,0,0,2.659-2.573V470.59H247.5v16.576h-1.278l-.173-2.763h-.069a11.3,11.3,0,0,1-2.555,2.314,5.576,5.576,0,0,1-3.074.863" transform="translate(-170.84 -341.612)"/><path d="M300.916,474.867a4.829,4.829,0,0,1-2-.362,3.2,3.2,0,0,1-1.278-1.019,3.966,3.966,0,0,1-.673-1.589,10.193,10.193,0,0,1-.19-2.037V459.188h-2.59v-1.174l2.625-.138.207-4.8h1.312v4.8h4.8v1.312h-4.8V470a7.69,7.69,0,0,0,.121,1.433,2.952,2.952,0,0,0,.432,1.105,2.082,2.082,0,0,0,.846.726,3.23,3.23,0,0,0,1.4.259,4.035,4.035,0,0,0,1.053-.155A6.544,6.544,0,0,0,303.2,473l.414,1.243a11.675,11.675,0,0,1-1.45.449,5.5,5.5,0,0,1-1.243.173" transform="translate(-213.554 -328.898)"/><path d="M340.167,448.748a1.365,1.365,0,0,1-.984-.38,1.278,1.278,0,0,1-.4-.967,1.309,1.309,0,0,1,.4-1.019,1.516,1.516,0,0,1,1.968,0,1.311,1.311,0,0,1,.4,1.019,1.28,1.28,0,0,1-.4.967,1.367,1.367,0,0,1-.984.38m-.794,4.006h1.52V469.33h-1.52Z" transform="translate(-245.933 -323.776)"/><path d="M365.286,487.166,359.07,470.59h1.658l3.73,10.395q.379,1.21.829,2.417t.829,2.348h.138q.414-1.14.846-2.348t.846-2.417l3.73-10.395h1.554l-6.147,16.576Z" transform="translate(-260.657 -341.612)"/><path d="M425.829,486.483a7.647,7.647,0,0,1-2.987-.587,6.922,6.922,0,0,1-2.435-1.71,8.24,8.24,0,0,1-1.64-2.728,10.281,10.281,0,0,1-.6-3.643,10.428,10.428,0,0,1,.6-3.66,8.379,8.379,0,0,1,1.623-2.746,7.26,7.26,0,0,1,2.314-1.727,6.268,6.268,0,0,1,2.676-.6,5.778,5.778,0,0,1,4.662,2,8.531,8.531,0,0,1,1.692,5.664v.622a2.874,2.874,0,0,1-.069.621H419.717a9.62,9.62,0,0,0,.483,2.884,6.806,6.806,0,0,0,1.26,2.279,5.743,5.743,0,0,0,1.951,1.485,5.933,5.933,0,0,0,2.555.535,7.06,7.06,0,0,0,2.435-.4,7.944,7.944,0,0,0,2.02-1.088l.622,1.174a20.409,20.409,0,0,1-2.193,1.105,7.623,7.623,0,0,1-3.022.518m-6.112-9.738h10.567a7.346,7.346,0,0,0-1.312-4.783,4.393,4.393,0,0,0-3.557-1.572,4.941,4.941,0,0,0-2.038.432,5.4,5.4,0,0,0-1.744,1.26,6.783,6.783,0,0,0-1.278,2,8.812,8.812,0,0,0-.639,2.659" transform="translate(-303.554 -340.515)"/><path d="M506.109,470.794V448.036h12.467v1.381H507.7v8.6h9.117V459.4H507.7v10.015h11.223v1.381Z" transform="translate(-367.396 -325.24)"/><path d="M569.429,465.721a6.194,6.194,0,0,1-5.007-2.227q-1.865-2.227-1.865-6.441a10.6,10.6,0,0,1,.587-3.626,8.351,8.351,0,0,1,1.606-2.763,7.027,7.027,0,0,1,2.348-1.744,6.728,6.728,0,0,1,2.815-.6,6.082,6.082,0,0,1,2.642.535,13.156,13.156,0,0,1,2.366,1.5l-.069-3.039v-6.837h1.519v24.829h-1.312l-.138-2.141h-.1a11.069,11.069,0,0,1-2.366,1.778,6,6,0,0,1-3.022.777m.207-1.347a5.318,5.318,0,0,0,2.642-.708,12.068,12.068,0,0,0,2.573-2.02V451.8a9.091,9.091,0,0,0-2.469-1.658,6.087,6.087,0,0,0-2.366-.483,4.853,4.853,0,0,0-2.314.57,5.826,5.826,0,0,0-1.848,1.554,7.573,7.573,0,0,0-1.226,2.349,9.286,9.286,0,0,0-.449,2.918,11.55,11.55,0,0,0,.363,3,6.919,6.919,0,0,0,1.054,2.3,4.8,4.8,0,0,0,4.04,2.02" transform="translate(-408.373 -319.753)"/><path d="M638.754,487.581a4.512,4.512,0,0,1-3.8-1.554,7.788,7.788,0,0,1-1.209-4.8V470.59h1.52v10.429a6.925,6.925,0,0,0,.881,3.919,3.266,3.266,0,0,0,2.884,1.26,4.725,4.725,0,0,0,2.694-.812,13.2,13.2,0,0,0,2.659-2.573V470.59H645.9v16.576h-1.278l-.173-2.763h-.069a11.3,11.3,0,0,1-2.556,2.314,5.576,5.576,0,0,1-3.073.863" transform="translate(-460.052 -341.612)"/><path d="M702.258,486.483a7.48,7.48,0,0,1-2.987-.587,6.928,6.928,0,0,1-2.383-1.692,7.776,7.776,0,0,1-1.589-2.711,10.966,10.966,0,0,1-.57-3.678,10.421,10.421,0,0,1,.622-3.712,8.223,8.223,0,0,1,1.658-2.745,7.117,7.117,0,0,1,2.4-1.692,7.216,7.216,0,0,1,2.884-.587,5.933,5.933,0,0,1,2.866.622,10.031,10.031,0,0,1,2,1.416l-.9,1.07a7.607,7.607,0,0,0-1.761-1.26,4.669,4.669,0,0,0-2.176-.5,5.288,5.288,0,0,0-2.366.535,5.727,5.727,0,0,0-1.9,1.519,7.459,7.459,0,0,0-1.278,2.331,9.141,9.141,0,0,0-.466,3,9.68,9.68,0,0,0,.432,2.97,7.111,7.111,0,0,0,1.209,2.314,5.366,5.366,0,0,0,1.9,1.5,5.653,5.653,0,0,0,2.469.535,5.434,5.434,0,0,0,2.435-.553,8.35,8.35,0,0,0,1.986-1.347l.794,1.071a10.373,10.373,0,0,1-2.383,1.554,6.692,6.692,0,0,1-2.9.622" transform="translate(-504.321 -340.515)"/><path d="M754.087,486.483a6.083,6.083,0,0,1-1.865-.276,4.413,4.413,0,0,1-1.52-.829,3.826,3.826,0,0,1-1.036-1.416,5.02,5.02,0,0,1-.38-2.038,4.553,4.553,0,0,1,2.573-4.2q2.572-1.433,8.133-2.055a13.093,13.093,0,0,0-.138-1.882,4.491,4.491,0,0,0-.587-1.692,3.576,3.576,0,0,0-1.209-1.209,3.8,3.8,0,0,0-2-.466,7,7,0,0,0-3.039.656,14.628,14.628,0,0,0-2.245,1.277l-.691-1.139q.449-.311,1.088-.691a9.736,9.736,0,0,1,1.433-.69,13.232,13.232,0,0,1,1.727-.535,8.231,8.231,0,0,1,1.934-.225,5.452,5.452,0,0,1,2.452.5,4.378,4.378,0,0,1,1.623,1.364,5.683,5.683,0,0,1,.9,2.02,10.779,10.779,0,0,1,.276,2.5v10.6H760.2l-.138-2.141h-.1a18.407,18.407,0,0,1-2.745,1.778,6.581,6.581,0,0,1-3.125.777m.276-1.312a5.846,5.846,0,0,0,2.763-.691,16.414,16.414,0,0,0,2.866-2v-5.629a34.913,34.913,0,0,0-4.317.759,11.244,11.244,0,0,0-2.832,1.071,4.107,4.107,0,0,0-1.537,1.416,3.416,3.416,0,0,0-.466,1.761,3.721,3.721,0,0,0,.276,1.519,2.714,2.714,0,0,0,.76,1.019,3.155,3.155,0,0,0,1.122.587,4.753,4.753,0,0,0,1.364.19" transform="translate(-543.925 -340.515)"/><path d="M811.211,474.867a4.829,4.829,0,0,1-2-.362,3.2,3.2,0,0,1-1.278-1.019,3.968,3.968,0,0,1-.673-1.589,10.193,10.193,0,0,1-.19-2.037V459.188h-2.59v-1.174l2.625-.138.207-4.8h1.312v4.8h4.8v1.312h-4.8V470a7.687,7.687,0,0,0,.121,1.433,2.952,2.952,0,0,0,.432,1.105,2.083,2.083,0,0,0,.846.726,3.23,3.23,0,0,0,1.4.259,4.035,4.035,0,0,0,1.053-.155A6.543,6.543,0,0,0,813.49,473l.414,1.243a11.673,11.673,0,0,1-1.45.449,5.5,5.5,0,0,1-1.243.173" transform="translate(-583.988 -328.898)"/><path d="M849.579,448.748a1.365,1.365,0,0,1-.984-.38,1.278,1.278,0,0,1-.4-.967,1.309,1.309,0,0,1,.4-1.019,1.516,1.516,0,0,1,1.968,0,1.311,1.311,0,0,1,.4,1.019,1.28,1.28,0,0,1-.4.967,1.367,1.367,0,0,1-.984.38m-.794,4.006H850.3V469.33h-1.519Z" transform="translate(-615.727 -323.776)"/><path d="M880.066,486.483a7.015,7.015,0,0,1-5.2-2.279,8.2,8.2,0,0,1-1.623-2.711,10.389,10.389,0,0,1-.6-3.678,10.68,10.68,0,0,1,.6-3.712,8.144,8.144,0,0,1,1.623-2.745,7.015,7.015,0,0,1,5.2-2.279,7.136,7.136,0,0,1,2.849.587,6.945,6.945,0,0,1,2.383,1.692,8.171,8.171,0,0,1,1.623,2.745,10.7,10.7,0,0,1,.6,3.712,10.41,10.41,0,0,1-.6,3.678A8.228,8.228,0,0,1,885.3,484.2a6.937,6.937,0,0,1-2.383,1.692,7.14,7.14,0,0,1-2.849.587m0-1.347a5.2,5.2,0,0,0,2.331-.535,5.458,5.458,0,0,0,1.865-1.5,7.379,7.379,0,0,0,1.226-2.314,9.353,9.353,0,0,0,.449-2.97,9.474,9.474,0,0,0-.449-3,7.616,7.616,0,0,0-1.226-2.331,5.391,5.391,0,0,0-1.865-1.519,5.212,5.212,0,0,0-2.331-.535,5.1,5.1,0,0,0-2.314.535,5.439,5.439,0,0,0-1.848,1.519,7.605,7.605,0,0,0-1.226,2.331,9.456,9.456,0,0,0-.449,3,9.336,9.336,0,0,0,.449,2.97A7.369,7.369,0,0,0,875.9,483.1a5.507,5.507,0,0,0,1.848,1.5,5.094,5.094,0,0,0,2.314.535" transform="translate(-633.47 -340.515)"/><path d="M943.577,486.069V469.492h1.312l.138,2.556h.1a15.082,15.082,0,0,1,2.625-2.124,5.657,5.657,0,0,1,3.073-.846,4.513,4.513,0,0,1,3.8,1.554,7.791,7.791,0,0,1,1.209,4.8v10.636h-1.52V475.639a6.927,6.927,0,0,0-.881-3.92,3.308,3.308,0,0,0-2.918-1.26,4.875,4.875,0,0,0-2.694.777,16.419,16.419,0,0,0-2.728,2.331v12.5Z" transform="translate(-684.964 -340.515)"/><path d="M1025.532,1.643a3.183,3.183,0,0,0-2.563,3.026c0,1.6.876,2.6,2.169,2.6a1.909,1.909,0,0,0,1.717-.844,14.37,14.37,0,0,0,1.239-2.889c.755-1.927,1.6-2.858,3.214-2.858,2,0,3.32,1.429,3.32,3.649a3.853,3.853,0,0,1-3.046,3.887l-.361-1.239a2.749,2.749,0,0,0,2.252-2.785A1.967,1.967,0,0,0,1031.447,2a1.882,1.882,0,0,0-1.515.811,11.815,11.815,0,0,0-1.133,2.647c-.809,2.134-1.654,3.13-3.58,3.13-2.042,0-3.434-1.5-3.434-3.852a4.282,4.282,0,0,1,3.316-4.4Z" transform="translate(-741.738 -0.244)" fill="#161615"/><path d="M1021.785,41.087c0-3.026,2.286-4.781,6.429-4.781,4.092,0,6.412,1.859,6.412,4.678,0,2.306-1.255,3.75-3.712,4.283l-.326-1.29c1.872-.379,2.87-1.41,2.87-2.871,0-2.134-1.84-3.406-5.3-3.406-3.37,0-5.192,1.29-5.192,3.439,0,1.618,1.069,2.734,3.026,3.078l-.276,1.255c-2.631-.6-3.936-2.062-3.936-4.385" transform="translate(-741.738 -26.355)" fill="#161615"/><path d="M1034.968,77.361V78.72h-5.312v6.243h5.312V86.32H1022.54V84.962h5.912V78.72h-5.912V77.361Z" transform="translate(-742.285 -56.158)" fill="#161615"/><path d="M1034.627,122.669c0,2.939-2.424,4.918-6.412,4.918s-6.429-1.979-6.429-4.918,2.457-4.92,6.429-4.92,6.412,1.977,6.412,4.92m-11.639,0c0,2.167,1.876,3.526,5.227,3.526s5.227-1.359,5.227-3.526-1.873-3.526-5.227-3.526-5.227,1.359-5.227,3.526" transform="translate(-741.738 -85.477)" fill="#161615"/><path d="M1034.627,165.37c0,2.942-2.424,4.92-6.412,4.92s-6.429-1.977-6.429-4.92,2.457-4.918,6.429-4.918,6.412,1.979,6.412,4.918m-11.639,0c0,2.17,1.876,3.528,5.227,3.528s5.227-1.358,5.227-3.528-1.873-3.526-5.227-3.526-5.227,1.359-5.227,3.526" transform="translate(-741.738 -116.476)" fill="#161615"/><path d="M1034.968,204.36v1.41h-11.243v5.555h-1.185v-6.963h12.429Z" transform="translate(-742.285 -148.35)" fill="#161615"/><path d="M1034.627,247.1c0,2.942-2.424,4.918-6.412,4.918s-6.429-1.976-6.429-4.918,2.457-4.92,6.429-4.92,6.412,1.976,6.412,4.92m-11.639,0c0,2.167,1.876,3.524,5.227,3.524s5.227-1.358,5.227-3.524-1.873-3.526-5.227-3.526-5.227,1.358-5.227,3.526" transform="translate(-741.738 -175.803)" fill="#161615"/><path d="M1034.964,286.093v7.291H1033.8v-5.916h-4.146v4.387h-1.168v-4.387h-5.949v-1.375Z" transform="translate(-742.281 -207.682)" fill="#161615"/><path d="M1092.254,8.152a3.757,3.757,0,0,1-1.562-3.286c0-2.958,2.37-4.866,6.358-4.866,4.144,0,6.483,1.842,6.483,4.918,0,2.185-1.222,3.63-3.646,4.318l-.274-1.41c1.8-.483,2.733-1.464,2.733-2.96,0-2.184-1.822-3.456-5.192-3.456-3.386,0-5.277,1.359-5.277,3.543a2.786,2.786,0,0,0,2.994,3.01h.873V5.092h1.187v4.3h-6.036V8.2Z" transform="translate(-791.759)" fill="#161615"/><path d="M1103.863,46.22v3.491c0,3.352-.911,4.97-3.282,4.97a3.119,3.119,0,0,1-3.18-2.58l-5.968,2.925V53.513l5.64-2.736v-3.2h-5.64V46.22Zm-1.151,1.357h-4.488v2.081c0,2.495.621,3.63,2.235,3.63,1.822,0,2.253-1.087,2.253-3.579Z" transform="translate(-792.296 -33.552)" fill="#161615"/><path d="M1103.87,88.647v2.1l-12.431,3.816V93.12l3.868-1.12V87.374l-3.868-1.1V84.812Zm-7.41,2.977,6.482-1.857v-.189L1096.46,87.7Z" transform="translate(-792.301 -61.567)" fill="#161615"/><path d="M1103.859,128.674v2.962a6.158,6.158,0,0,1-.979,3.921,6.3,6.3,0,0,1-5.227,2.149c-4.127,0-6.226-2.132-6.226-6.383v-2.647h12.432Zm-1.151,1.361h-10.056v1.1a5.529,5.529,0,0,0,.857,3.613,5.034,5.034,0,0,0,4.127,1.616c2,0,3.438-.568,4.266-1.634a5.152,5.152,0,0,0,.809-3.406v-1.29Z" transform="translate(-792.292 -93.407)" fill="#161615"/><path d="M1103.325,172.1h-8.01a4.308,4.308,0,0,0-2.029.325,3.474,3.474,0,0,0,0,5.59,4.918,4.918,0,0,0,2.253.326h7.788V179.7h-8.234c-2.889,0-4.4-1.566-4.4-4.487,0-2.943,1.5-4.474,4.4-4.474h8.234V172.1Z" transform="translate(-791.759 -123.943)" fill="#161615"/><path d="M1103.87,213.853v2.1l-12.431,3.816v-1.446l3.868-1.118v-4.625l-3.868-1.1v-1.463Zm-7.41,2.974,6.482-1.857v-.189l-6.482-1.873Z" transform="translate(-792.301 -152.455)" fill="#161615"/><path d="M1102.676,249.649v-3.63h1.185v8.669h-1.185v-3.63h-11.245v-1.41Z" transform="translate(-792.295 -178.591)" fill="#161615"/><path d="M1103.865,285.885v7.345H1102.7v-5.968h-4.144v4.232h-1.17v-4.232h-4.762v5.968h-1.187v-7.345Z" transform="translate(-792.298 -207.531)" fill="#161615"/><path d="M63.469,164.483c6.063.422,6.063,3.064,6.063,7.866v13.508c0,5.045,0,7.8-1.681,10.388-2.58,4.022-7.622,5.4-11.584,5.4-5.22,0-8.4-2.34-9.78-4.682-1.5-2.52-1.5-5.7-1.5-11.407V173.07c0-8.586.18-8.586,6.122-8.586v-1.321H32.982v1.321h.9c5.281,0,5.34.662,5.34,8.7v12.186c0,6.725,0,9.487,1.98,12.428,1.56,2.283,5.461,5.822,13.685,5.822,7.561,0,12.422-3,14.523-6.842,1.56-2.88,1.56-5.463,1.56-10.687V172.888c0-4.922,0-7.982,5.822-8.4v-1.321H63.469Zm44.675,0h.84c5.222,0,5.34.542,5.34,8.586v19.512c0,7.685,0,9-5.039,9h-1.14v1.321h18.122v-1.321h-1.14c-5.039,0-5.039-1.319-5.039-9V173.07c0-8.105.12-8.586,5.341-8.586h.84v-1.321H108.143ZM91.8,178.888c-4.623-2.04-9.543-4.2-9.543-8.944,0-2.642,1.8-6.064,6.841-6.064a11.04,11.04,0,0,1,10.511,8.831h1.312v-9.553H99.661a6.359,6.359,0,0,1-1.562,3.484,11.48,11.48,0,0,0-9.183-4.2c-6.6,0-10.5,4.68-10.5,9.846,0,7.564,6.542,10.385,10.985,12.307.359.12,2.337.962,2.7,1.142,4.019,1.739,8.1,4.022,8.1,8.7,0,3.661-2.94,7.742-8.821,7.742-8.51,0-11.115-8.145-11.808-11.638H78.113v12.364h1.314a9.936,9.936,0,0,1,1.567-4.265,14.068,14.068,0,0,0,10.922,4.982c7.622,0,12.483-4.743,12.483-11.464,0-7.567-4.859-9.85-12.6-13.272m135.763,0c-4.621-2.04-9.541-4.2-9.541-8.944,0-2.642,1.8-6.064,6.842-6.064a11.04,11.04,0,0,1,10.509,8.831h1.314v-9.553h-1.262a6.335,6.335,0,0,1-1.562,3.484,11.469,11.469,0,0,0-9.18-4.2c-6.6,0-10.5,4.68-10.5,9.846,0,7.564,6.54,10.385,10.983,12.307.359.12,2.338.962,2.7,1.142,4.021,1.739,8.1,4.022,8.1,8.7,0,3.661-2.941,7.742-8.821,7.742-8.512,0-11.117-8.145-11.807-11.638h-1.458v12.364h1.314a9.943,9.943,0,0,1,1.565-4.265,14.083,14.083,0,0,0,10.924,4.982c7.623,0,12.484-4.743,12.484-11.464,0-7.567-4.861-9.85-12.6-13.272m31.151,0c-4.621-2.04-9.541-4.2-9.541-8.944,0-2.642,1.8-6.064,6.841-6.064a11.042,11.042,0,0,1,10.511,8.831h1.312v-9.553h-1.26a6.335,6.335,0,0,1-1.562,3.484,11.466,11.466,0,0,0-9.18-4.2c-6.6,0-10.5,4.68-10.5,9.846,0,7.564,6.541,10.385,10.981,12.307.361.12,2.341.962,2.7,1.142,4.021,1.739,8.1,4.022,8.1,8.7,0,3.661-2.94,7.742-8.821,7.742-8.508,0-11.113-8.145-11.807-11.638H245.03v12.364h1.314a10,10,0,0,1,1.565-4.265,14.08,14.08,0,0,0,10.924,4.982c7.623,0,12.484-4.743,12.484-11.464,0-7.567-4.859-9.85-12.6-13.272M158.47,164.483c6.78.059,6.78,3.123,6.78,6v23.252h-.118l-23.408-30.576h-11.7v1.321c5.041,0,5.881,0,5.881,8.584v21.073c0,3.724,0,4.682-.9,5.587-1.623,1.559-4.323,1.74-5.522,1.859v1.321H144.3v-1.321c-3.778-.059-5.22-1.141-5.579-1.5-1.2-1.021-1.381-1.8-1.381-5.944V166.586h.12l27.791,36.32h1.435v-32c0-3.181,0-5.882,6.183-6.423v-1.321h-14.4v1.321Zm36.916,37.1h-2.938c-5.463,0-5.824-.481-5.824-9.607v-9.424h4.321c4.561,0,5.881.3,5.881,6.3h1.381V175.231h-1.381c0,4.623-.359,6-5.94,6h-4.262v-16.75h5.8c6.955,0,9.846.25,11.505,8.229H205.3v-9.55H175.7v1.321c5.1,0,5.159.722,5.159,8.585V192.58c0,7.685,0,9-5.159,9h-.782v1.323h32.89l.007-12.362h-1.381c-1.959,11.1-7.051,11.041-11.049,11.041M19.04,181.595v-.123c2.4-.3,11.221-1.618,11.221-9.246,0-9.483-12.543-9.082-16.264-9.082-1.68,0-13.983.019-13.983.019v1.321c5.942,0,6.122,0,6.122,8.7V192.58c0,7.685,0,9-5.041,9H0v1.323H15.2c3.419,0,9.06,0,12.421-2.1a10.226,10.226,0,0,0,4.8-8.706c0-7.022-5.881-10.024-13.383-10.5M11.9,164.487s2.56-.033,3.67-.009c5.77.116,8.514,1.957,8.514,8.052,0,7.564-4.741,8.585-12.184,8.4Zm4.8,37.039c-4.8,0-4.8-1.142-4.8-10.265v-8.885c6-.361,9.364.658,11.044,1.859,2.221,1.623,3.061,4.144,3.061,7.687,0,2.1.059,9.6-9.3,9.6" transform="translate(0 -117.919)" fill="#161615"/><path d="M55.333,27.066V1.834h5.5c4.366,0,6.68.005,7.92,7.392h1.081l0-8.578H35.657l0,8.578h1.187c.43-2.535,1.072-4.75,1.937-5.829,1.239-1.562,2.546-1.562,6.263-1.562h5.113V27.064c0,6.9.054,8.088-4.528,8.088H43.8v1.184H61.639V35.152h-1.78c-4.526,0-4.526-1.184-4.526-8.086M189.272,0c-9.7,0-19.24,6.094-19.24,18.224,0,11.86,8.568,18.761,19.4,18.761,11.854,0,19.455-7.654,19.455-18.547C208.889,5.661,198.973,0,189.272,0m.378,35.692c-9.378,0-13.582-6.145-13.582-17.252,0-7.494,2.263-17.144,13.366-17.144,12.342,0,13.419,12.023,13.419,17.2,0,6.036-1.508,17.2-13.2,17.2M274.113,4.747c-3.29-2.805-7.478-4.1-15.292-4.1H242.962V1.834h1.024c4.741,0,4.85.755,4.85,7.982v17.25c0,4.918-.132,7.156-1.918,7.923a4.3,4.3,0,0,1-2.294.177c-2.2-.434-4.111-2.026-8.377-7.775-.271-.325-1.564-2.05-1.832-2.427-.647-.863-3.99-5.338-6.308-6.522v-.108c5.661-.594,10.187-3.561,10.187-8.949a7.586,7.586,0,0,0-3.018-6.147C233.227,1.566,230.1.653,222.825.653l-13.2,0V1.835c5.279,0,5.44,0,5.44,7.711V27.069c0,6.9,0,8.086-4.58,8.086h-1.13v1.186h17.081V35.156h-1.723c-4.528,0-4.472-1.186-4.472-8.086V19.143h1.4a3.261,3.261,0,0,1,2.534.811,54.565,54.565,0,0,1,5.6,7.006c1.458,2.158,5.121,7.441,7.816,9.381h21.048c5.284,0,11.1.056,15.791-3.935,4.85-4.1,5.5-10.567,5.5-13.586,0-3.993-.915-9.921-5.817-14.074m-50.908,13.1h-2.964V2.068c.708,0,1.232,0,2.2,0,4.8,0,10.084-.07,10.084,7.692,0,5.286-2.372,8.088-9.324,8.088m45.841,14.829c-2.964,2.316-6.9,2.425-9.433,2.425-5.657,0-5.6-.217-5.6-9.6V1.832s2.534-.019,4.366-.019c2.8,0,8.731-.3,12.449,4.982,2.8,3.988,3.342,9,3.342,12.4,0,4.258-.81,10.136-5.121,13.48M22.288,14.773C18.137,12.942,13.719,11,13.719,6.741c0-2.371,1.617-5.446,6.143-5.446A9.917,9.917,0,0,1,29.3,9.227h1.18V.648H29.351a5.694,5.694,0,0,1-1.4,3.126A10.308,10.308,0,0,0,19.7,0c-5.928,0-9.432,4.2-9.432,8.843,0,6.793,5.874,9.327,9.864,11.051.323.107,2.1.863,2.424,1.024,3.612,1.564,7.275,3.611,7.275,7.819,0,3.286-2.639,6.954-7.922,6.954-7.641,0-9.98-7.317-10.6-10.454H10v11.1h1.234a8.993,8.993,0,0,1,1.352-3.828,12.633,12.633,0,0,0,9.81,4.475c6.844,0,11.21-4.26,11.21-10.3,0-6.793-4.366-8.841-11.318-11.914M127.3,1.834c6.088.054,6.088,2.1,6.088,5.392V28.217h-.106L112.263.648H101.753V1.834c4.526,0,5.281,0,5.281,7.711V28.469c0,3.342-.031,4.43-.809,5.269a5.013,5.013,0,0,1-4.58,1.4c-2.14-.556-2.792-1.849-3.724-4.085a8.394,8.394,0,0,0-.54-1.239L84.879.108H83.855L73.507,24.91c-.269.592-1.131,2.694-1.293,3.073-1.725,4.527-2.534,6.578-6.306,7.17v1.186H76.525V35.152c-3.072,0-3.88-1.887-3.88-3.343,0-1.507.916-3.557,1.832-5.822a3.346,3.346,0,0,1,.215-.538l.916-2.266H89.191l2.693,6.576c.109.217.591,1.3.647,1.51a4.851,4.851,0,0,1,.594,1.941c0,1.943-1.886,1.943-4.42,1.943v1.184h25.874V35.152c-3.4-.054-4.689-1.024-5.012-1.347-1.08-.917-1.241-1.62-1.241-5.338V3.722h.108L133.4,36.34h1.282V7.6c0-2.854.1-5.857,5.544-5.857s5.55,3,5.55,5.854V27.066c0,6.9,0,8.088-4.529,8.088h-1.076V36.34h16.545V35.154H155.53c-4.581,0-4.581-1.186-4.581-8.088v-8.9h3.342c3.235,0,5.39,0,5.39,5.928h1.295V11.539h-1.295c0,5.013-1.725,5.446-5.39,5.446h-3.342V1.834H157.9c3.448,0,5.647,0,7.37,2.481a8.741,8.741,0,0,1,1.649,4.911h1.272l0-8.576H127.3ZM76.148,22,82.4,6.795l6.3,15.2Z" transform="translate(-7.259)" fill="#950022"/><rect width="312.994" height="0.591" transform="translate(0 103.175)" fill="#292526"/></g></svg>